<?xml version="1.0" encoding="iso-8859-1"?>
<!-- Uploaded to: SVG Repo, www.svgrepo.com, Generator: SVG Repo Mixer Tools -->
<!DOCTYPE svg PUBLIC "-//W3C//DTD SVG 1.1//EN" "http://www.w3.org/Graphics/SVG/1.1/DTD/svg11.dtd">
<svg fill="#000000" height="20px" width="20px" version="1.1" id="Capa_1" xmlns="http://www.w3.org/2000/svg" xmlns:xlink="http://www.w3.org/1999/xlink" 
	 viewBox="0 0 373.655 373.655" xml:space="preserve">
<g>
	<polygon points="180.827,165.507 134.434,119.114 113.221,140.327 180.827,207.933 180.827,275.542 210.827,275.542 
		210.827,113.113 180.827,113.113 	"/>
	<path d="M369.261,176.221L197.434,4.394c-5.857-5.858-15.355-5.858-21.213,0L4.394,176.221c-5.858,5.858-5.858,15.355,0,21.213
		l171.827,171.827c2.929,2.929,6.768,4.394,10.606,4.394c3.839,0,7.678-1.464,10.606-4.394l171.827-171.827
		C375.119,191.576,375.119,182.079,369.261,176.221z M186.827,337.441L36.212,186.828L186.827,36.214l150.614,150.614
		L186.827,337.441z"/>
</g>
</svg>